<svg xmlns="http://www.w3.org/2000/svg" width="311" height="311" viewBox="0 0 311 311">
  <g id="Group_2" data-name="Group 2" transform="translate(-32 -285)">
    <circle id="Ellipse_1" data-name="Ellipse 1" cx="155.5" cy="155.5" r="155.5" transform="translate(32 285)" fill="#fcb800"/>
    <g id="cf17cf564407b37519555785ec58febc" transform="translate(17.041 328)">
      <g id="Group_1" data-name="Group 1" transform="translate(82.589 10)">
        <path id="Path_1" data-name="Path 1" d="M391.765-487.245,378.01-473.489h9.819c8.973,0,9.819.042,10.031.72.084.424.17,24.76.17,54.131-.042,58.914-.212,54.641,2.625,57.052a7.646,7.646,0,0,0,11.174-1.565c.89-1.186.89-1.228,1.1-55.657l.212-54.471,9.861-.212,9.819-.212L419.19-487.375,405.521-501Z" transform="translate(-316.018 501)" fill="#fff"/>
        <path id="Path_2" data-name="Path 2" d="M135.9-324.887c-.592.212-2.835,1.228-5.036,2.371A87.63,87.63,0,0,0,83.21-255.857,119.632,119.632,0,0,0,83-233.848a87.1,87.1,0,0,0,8.465,28.272,84.3,84.3,0,0,0,18.454,25.055,87.447,87.447,0,0,0,120.918-.382,86.839,86.839,0,0,0,26.325-51.932c1.016-7.321.72-19.511-.594-26.071-5.078-25.351-20.443-46.9-43.171-60.607a30.256,30.256,0,0,0-5.628-2.793,7.325,7.325,0,0,0-9.227,7.068c0,3.851.974,5.12,6.392,8.381,19.3,11.64,31.785,28.568,36.442,49.393.846,3.895.974,5.418.932,13.881,0,10.454-.424,13.206-3.133,21.8a73.4,73.4,0,0,1-46.258,46.556c-8.211,2.667-12.91,3.387-22.728,3.387-7.363,0-9.4-.17-13.459-.974a73,73,0,0,1-57.688-57.01c-1.312-6.01-1.607-18.58-.636-24.843,3.809-24.21,18.2-43.8,40.334-54.893,5.29-2.625,6.6-4.191,6.6-7.787a7.529,7.529,0,0,0-5.544-7.491A5.828,5.828,0,0,0,135.9-324.887Z" transform="translate(-82.589 362.09)" fill="#fff"/>
      </g>
    </g>
  </g>
</svg>
